<?xml version="1.0" standalone="no"?><!DOCTYPE svg PUBLIC "-//W3C//DTD SVG 1.1//EN" "http://www.w3.org/Graphics/SVG/1.1/DTD/svg11.dtd"><svg class="icon" width="200px" height="200.00px" viewBox="0 0 1024 1024" version="1.1" xmlns="http://www.w3.org/2000/svg"><path fill="#8a8a8a" d="M430.933333 136.533333H179.2c-25.6 0-42.666667 17.066667-42.666667 42.666667V426.666667c0 25.6 17.066667 42.666667 42.666667 42.666666H426.666667c25.6 0 42.666667-17.066667 42.666666-42.666666V179.2c4.266667-21.333333-17.066667-42.666667-38.4-42.666667z m-12.8 281.6H192V192h221.866667v226.133333zM844.8 136.533333H597.333333c-25.6 0-42.666667 17.066667-42.666666 42.666667V426.666667c0 25.6 17.066667 42.666667 42.666666 42.666666h247.466667c25.6 0 42.666667-17.066667 42.666667-42.666666V179.2c0-21.333333-21.333333-42.666667-42.666667-42.666667z m-12.8 281.6h-221.866667V192h221.866667v226.133333zM430.933333 550.4H179.2c-25.6 0-42.666667 17.066667-42.666667 42.666667v247.466666c0 25.6 17.066667 42.666667 42.666667 42.666667H426.666667c25.6 0 42.666667-17.066667 42.666666-42.666667v-247.466666c4.266667-21.333333-17.066667-42.666667-38.4-42.666667z m-12.8 281.6H192v-221.866667h221.866667v221.866667zM721.066667 550.4c-93.866667 0-166.4 76.8-166.4 166.4s76.8 166.4 166.4 166.4 166.4-76.8 166.4-166.4-76.8-166.4-166.4-166.4z m0 281.6c-59.733333 0-110.933333-51.2-110.933334-110.933333s51.2-110.933333 110.933334-110.933334 110.933333 51.2 110.933333 110.933334-51.2 110.933333-110.933333 110.933333z"  /></svg>