<?xml version="1.0" standalone="no"?><!DOCTYPE svg PUBLIC "-//W3C//DTD SVG 1.1//EN" "http://www.w3.org/Graphics/SVG/1.1/DTD/svg11.dtd"><svg t="1664079725576" class="icon" viewBox="0 0 1024 1024" version="1.1" xmlns="http://www.w3.org/2000/svg" p-id="4720" xmlns:xlink="http://www.w3.org/1999/xlink" width="64" height="64"><path d="M258.56 945.152l1.024-199.68-7.68-4.608c-5.632-3.584-11.776-7.168-16.896-11.264-20.48-14.336-39.424-29.696-56.32-47.104-8.192-8.192-8.192-20.992 0-29.184 8.192-8.192 20.992-8.192 29.184 0 15.36 15.36 32.256 29.184 50.688 41.984 5.12 3.584 10.24 6.656 15.36 10.24 5.12 3.072 10.752 6.656 16.384 9.728l10.752 6.144-1.024 144.896 144.896-99.84 7.68 1.024c20.48 3.072 39.424 5.12 64.512 5.12 218.112 0 395.776-141.312 395.776-314.88S735.232 143.36 517.12 143.36 121.344 284.672 121.344 458.24c0 42.496 10.24 83.968 31.232 122.368 5.12 10.24 1.536 22.528-8.192 27.648-9.728 5.12-22.528 1.536-27.648-8.192-24.064-45.056-35.84-92.672-35.84-141.824C80.384 262.144 276.48 102.4 517.12 102.4s436.736 159.744 436.736 355.84S757.76 814.08 517.12 814.08c-24.064 0-43.008-1.536-62.464-4.096l-196.096 135.168z" fill="#ffffff" p-id="4721"></path><path d="M303.616 471.04m-54.272 0a54.272 54.272 0 1 0 108.544 0 54.272 54.272 0 1 0-108.544 0Z" fill="#ffffff" p-id="4722"></path><path d="M516.608 471.04m-54.272 0a54.272 54.272 0 1 0 108.544 0 54.272 54.272 0 1 0-108.544 0Z" fill="#ffffff" p-id="4723"></path><path d="M729.6 471.04m-54.272 0a54.272 54.272 0 1 0 108.544 0 54.272 54.272 0 1 0-108.544 0Z" fill="#ffffff" p-id="4724"></path></svg>